grf
version=1
nRows=15
nColumns=37
inDegrees=no
endheader
time	ground_force_1_vx	ground_force_1_vy	ground_force_1_vz	ground_force_1_px	ground_force_1_py	ground_force_1_pz	ground_moment_1_mx	ground_moment_1_my	ground_moment_1_mz	ground_force_2_vx	ground_force_2_vy	ground_force_2_vz	ground_force_2_px	ground_force_2_py	ground_force_2_pz	ground_moment_2_mx	ground_moment_2_my	ground_moment_2_mz	ground_force_3_vx	ground_force_3_vy	ground_force_3_vz	ground_force_3_px	ground_force_3_py	ground_force_3_pz	ground_moment_3_mx	ground_moment_3_my	ground_moment_3_mz	ground_force_4_vx	ground_force_4_vy	ground_force_4_vz	ground_force_4_px	ground_force_4_py	ground_force_4_pz	ground_moment_4_mx	ground_moment_4_my	ground_moment_4_mz
      1.54000000	      0.00000000	     -0.00000000	      0.00000000	      0.00000000	      0.00000000	      0.00000000	      0.00000000	      0.00000000	      0.00000000	     20.48927307	     19.81606674	   -418.52526855	   -350.14202176	  -1113.70679315	      0.00000000	      0.00000000	      0.00000000	   9920.92622479	    -19.01307369	    -30.11587740	   -447.02807617	   -298.58700598	   -659.60926531	      0.00000000	      0.00000000	     -0.00000000	 -17202.47964677	      0.00000000	     -0.00000000	      0.00000000	      0.00000000	      0.00000000	      0.00000000	      0.00000000	      0.00000000	      0.00000000
      1.55000000	      0.00000000	     -0.00000000	      0.00000000	      0.00000000	      0.00000000	      0.00000000	      0.00000000	      0.00000000	      0.00000000	     20.96584702	     19.96520996	   -419.69915771	   -350.12189517	  -1114.78325539	      0.00000000	      0.00000000	      0.00000000	   9783.77448211	    -19.39714499	    -29.55879614	   -440.98410034	   -297.99814239	   -659.90511975	      0.00000000	      0.00000000	     -0.00000000	 -17080.42565917	      0.00000000	     -0.00000000	      0.00000000	      0.00000000	      0.00000000	      0.00000000	      0.00000000	      0.00000000	      0.00000000
      1.56000000	      0.00000000	     -0.00000000	      0.00000000	      0.00000000	      0.00000000	      0.00000000	      0.00000000	      0.00000000	      0.00000000	     20.48902321	     21.18571854	   -419.22460938	   -349.02704025	  -1115.14291638	      0.00000000	      0.00000000	      0.00000000	   9820.47269501	    -19.42658871	    -29.23554823	   -438.41525269	   -297.32887260	   -660.03943573	      0.00000000	      0.00000000	     -0.00000000	 -16973.82988022	      0.00000000	     -0.00000000	      0.00000000	      0.00000000	      0.00000000	      0.00000000	      0.00000000	      0.00000000	      0.00000000
      1.57000000	      0.00000000	     -0.00000000	      0.00000000	      0.00000000	      0.00000000	      0.00000000	      0.00000000	      0.00000000	      0.00000000	     18.91262817	     21.57025146	   -421.69412231	   -348.21166598	  -1114.39331483	      0.00000000	      0.00000000	      0.00000000	   9894.41213608	    -19.42691870	    -29.50018331	   -439.22982788	   -297.64382614	   -660.24080215	      0.00000000	      0.00000000	     -0.00000000	 -16948.80014005	      0.00000000	     -0.00000000	      0.00000000	      0.00000000	      0.00000000	      0.00000000	      0.00000000	      0.00000000	      0.00000000
      1.58000000	      0.00000000	     -0.00000000	      0.00000000	      0.00000000	      0.00000000	      0.00000000	      0.00000000	      0.00000000	      0.00000000	     17.51449585	     22.31218529	   -426.28671265	   -347.32315099	  -1114.62308993	      0.00000000	      0.00000000	      0.00000000	   9790.56499160	    -19.48694867	    -29.35209676	   -440.74853516	   -297.48378570	   -660.49598483	      0.00000000	      0.00000000	     -0.00000000	 -16916.98696030	      0.00000000	     -0.00000000	      0.00000000	      0.00000000	      0.00000000	      0.00000000	      0.00000000	      0.00000000	      0.00000000
      1.59000000	      0.00000000	     -0.00000000	      0.00000000	      0.00000000	      0.00000000	      0.00000000	      0.00000000	      0.00000000	      0.00000000	     16.05791664	     23.67899323	   -431.35015869	   -346.50089391	  -1115.59231884	      0.00000000	      0.00000000	      0.00000000	   9847.98418284	    -19.75294748	    -28.96945208	   -441.79315186	   -297.47806799	   -660.40106599	      0.00000000	      0.00000000	     -0.00000000	 -16992.20253971	      0.00000000	     -0.00000000	      0.00000000	      0.00000000	      0.00000000	      0.00000000	      0.00000000	      0.00000000	      0.00000000
      1.60000000	      0.00000000	     -0.00000000	      0.00000000	      0.00000000	      0.00000000	      0.00000000	      0.00000000	      0.00000000	      0.00000000	     15.34345341	     24.15358543	   -435.70880127	   -346.03410980	  -1115.55908307	      0.00000000	      0.00000000	      0.00000000	   9993.79327738	    -20.34380966	    -27.87978567	   -445.04901123	   -297.48113380	   -660.46205569	      0.00000000	      0.00000000	     -0.00000000	 -17018.22923666	      0.00000000	     -0.00000000	      0.00000000	      0.00000000	      0.00000000	      0.00000000	      0.00000000	      0.00000000	      0.00000000
      1.61000000	      0.00000000	     -0.00000000	      0.00000000	      0.00000000	      0.00000000	      0.00000000	      0.00000000	      0.00000000	      0.00000000	     14.06529140	     24.42173004	   -437.23675537	   -346.21978375	  -1115.67597649	      0.00000000	      0.00000000	      0.00000000	  10078.69246059	    -20.87682008	    -27.20244416	   -445.28051758	   -298.11414630	   -661.06191305	      0.00000000	      0.00000000	     -0.00000000	 -17109.99428837	      0.00000000	     -0.00000000	      0.00000000	      0.00000000	      0.00000000	      0.00000000	      0.00000000	      0.00000000	      0.00000000
      1.62000000	      0.00000000	     -0.00000000	      0.00000000	      0.00000000	      0.00000000	      0.00000000	      0.00000000	      0.00000000	      0.00000000	     13.17204475	     25.49026489	   -439.35992432	   -345.35403217	  -1115.74811589	      0.00000000	      0.00000000	      0.00000000	  10081.41862431	    -19.98982283	    -26.91028039	   -446.21197510	   -298.00604683	   -660.83214583	      0.00000000	      0.00000000	     -0.00000000	 -17002.34491845	      0.00000000	     -0.00000000	      0.00000000	      0.00000000	      0.00000000	      0.00000000	      0.00000000	      0.00000000	      0.00000000
      1.63000000	      0.00000000	     -0.00000000	      0.00000000	      0.00000000	      0.00000000	      0.00000000	      0.00000000	      0.00000000	      0.00000000	     11.77435589	     25.87371445	   -440.88253784	   -344.75393517	  -1116.46362509	      0.00000000	      0.00000000	      0.00000000	  10068.79829373	    -19.33895340	    -26.23290084	   -445.05014038	   -298.00833636	   -662.18241274	      0.00000000	      0.00000000	     -0.00000000	 -16856.88271705	      0.00000000	     -0.00000000	      0.00000000	      0.00000000	      0.00000000	      0.00000000	      0.00000000	      0.00000000	      0.00000000
      1.64000000	      0.00000000	     -0.00000000	      0.00000000	      0.00000000	      0.00000000	      0.00000000	      0.00000000	      0.00000000	      0.00000000	     11.63126469	     26.82290649	   -443.36090088	   -345.27439484	  -1116.73026882	      0.00000000	      0.00000000	      0.00000000	  10126.89206003	    -19.30880963	    -25.78993056	   -441.92083740	   -298.16317774	   -661.93832262	      0.00000000	      0.00000000	     -0.00000000	 -16724.37519469	      0.00000000	     -0.00000000	      0.00000000	      0.00000000	      0.00000000	      0.00000000	      0.00000000	      0.00000000	      0.00000000
      1.65000000	      0.00000000	     -0.00000000	      0.00000000	      0.00000000	      0.00000000	      0.00000000	      0.00000000	      0.00000000	      0.00000000	     11.98464584	     27.45216370	   -446.17013550	   -344.84812617	  -1116.96702663	      0.00000000	      0.00000000	      0.00000000	  10118.91790265	    -19.07078776	    -25.61328721	   -439.70892334	   -298.39484443	   -662.32417866	      0.00000000	      0.00000000	     -0.00000000	 -16646.74031028	      0.00000000	     -0.00000000	      0.00000000	      0.00000000	      0.00000000	      0.00000000	      0.00000000	      0.00000000	      0.00000000
      1.66000000	      0.00000000	     -0.00000000	      0.00000000	      0.00000000	      0.00000000	      0.00000000	      0.00000000	      0.00000000	      0.00000000	     12.57868195	     27.44973183	   -448.78039551	   -345.29922541	  -1116.47720126	      0.00000000	      0.00000000	      0.00000000	  10100.92024098	    -18.12736154	    -24.55342707	   -440.26159668	   -298.71949517	   -661.98075219	      0.00000000	      0.00000000	     -0.00000000	 -16456.33521871	      0.00000000	     -0.00000000	      0.00000000	      0.00000000	      0.00000000	      0.00000000	      0.00000000	      0.00000000	      0.00000000
      1.67000000	      0.00000000	     -0.00000000	      0.00000000	      0.00000000	      0.00000000	      0.00000000	      0.00000000	      0.00000000	      0.00000000	     14.30434608	     27.07056808	   -450.19403076	   -345.39688847	  -1116.50949291	      0.00000000	      0.00000000	      0.00000000	  10098.93613019	    -16.47524464	    -23.20374917	   -439.47274780	   -299.39498280	   -662.34125620	      0.00000000	      0.00000000	     -0.00000000	 -16568.28445451	      0.00000000	     -0.00000000	      0.00000000	      0.00000000	      0.00000000	      0.00000000	      0.00000000	      0.00000000	      0.00000000
      1.68000000	      0.00000000	     -0.00000000	      0.00000000	      0.00000000	      0.00000000	      0.00000000	      0.00000000	      0.00000000	      0.00000000	     15.19658566	     27.12322998	   -451.70452881	   -345.60222692	  -1117.76979329	      0.00000000	      0.00000000	      0.00000000	  10041.61414252	    -15.55188375	    -22.43370683	   -437.63195801	   -299.75369328	   -663.02553334	      0.00000000	      0.00000000	     -0.00000000	 -16346.11594046	      0.00000000	     -0.00000000	      0.00000000	      0.00000000	      0.00000000	      0.00000000	      0.00000000	      0.00000000	      0.00000000
